<svg id="Layer_1" enable-background="new 0 0 512 512" height="512" viewBox="0 0 512 512" width="512" xmlns="http://www.w3.org/2000/svg"><g><path d="m163.642 181.543c-90.233 0-163.642 73.409-163.642 163.642s73.409 163.642 163.642 163.642 163.642-73.409 163.642-163.642-73.41-163.642-163.642-163.642zm0 148.642c25.172 0 45.651 20.479 45.651 45.652 0 19.918-12.827 36.887-30.651 43.107v9.505c0 8.284-6.716 15-15 15s-15-6.716-15-15v-6.961h-15.652c-8.284 0-15-6.716-15-15s6.716-15 15-15h30.652c8.63 0 15.651-7.021 15.651-15.651 0-8.631-7.021-15.652-15.651-15.652-25.172 0-45.652-20.479-45.652-45.651 0-19.918 12.828-36.887 30.652-43.107v-9.505c0-8.284 6.716-15 15-15s15 6.716 15 15v6.961h15.651c8.284 0 15 6.716 15 15s-6.716 15-15 15h-30.651c-8.63 0-15.652 7.021-15.652 15.651s7.021 15.651 15.652 15.651z"/><path d="m401.468 122.087h-59.456c-24.514 0-44.457-19.943-44.457-44.457 0-41.056-33.401-74.456-74.457-74.456s-74.457 33.4-74.457 74.456v44.457h-34.444c-6.669 0-12.537 4.403-14.402 10.807l-9.654 33.153c22.676-9.338 47.494-14.504 73.5-14.504 26.005 0 50.823 5.165 73.499 14.504l-9.654-33.153c-1.864-6.403-7.733-10.807-14.402-10.807h-34.444v-44.457c0-24.513 19.943-44.456 44.457-44.456s44.457 19.943 44.457 44.456c0 41.056 33.401 74.457 74.457 74.457h59.456c8.284 0 15-6.716 15-15s-6.715-15-14.999-15z"/><path d="m497 122.087h-29.729c-8.284 0-15 6.716-15 15s6.716 15 15 15h29.729c8.284 0 15-6.716 15-15s-6.716-15-15-15z"/><path d="m447.998 105.557c3.839 0 7.678-1.465 10.606-4.394l21.021-21.021c5.858-5.857 5.858-15.355 0-21.213-5.857-5.857-15.355-5.857-21.213 0l-21.02 21.021c-5.858 5.857-5.858 15.355 0 21.213 2.928 2.929 6.767 4.394 10.606 4.394z"/><path d="m401.468 26.555c-8.284 0-15 6.716-15 15v29.729c0 8.284 6.716 15 15 15s15-6.716 15-15v-29.729c0-8.284-6.716-15-15-15z"/><path d="m344.331 101.163c2.929 2.93 6.768 4.394 10.606 4.394s7.678-1.465 10.606-4.394c5.858-5.857 5.858-15.354 0-21.213l-21.021-21.021c-5.857-5.859-15.355-5.857-21.213 0s-5.858 15.354 0 21.213z"/><path d="m344.331 173.011-21.021 21.021c-5.858 5.857-5.858 15.355 0 21.213 2.929 2.929 6.768 4.394 10.606 4.394s7.678-1.465 10.606-4.394l21.021-21.021c5.858-5.857 5.858-15.355 0-21.213-5.856-5.858-15.355-5.858-21.212 0z"/><path d="m401.468 187.891c-8.284 0-15 6.716-15 15v29.729c0 8.284 6.716 15 15 15s15-6.716 15-15v-29.729c0-8.285-6.716-15-15-15z"/><path d="m458.604 173.011c-5.857-5.859-15.355-5.857-21.213 0-5.858 5.858-5.857 15.355 0 21.213l21.021 21.021c2.929 2.93 6.768 4.394 10.606 4.394s7.678-1.465 10.606-4.394c5.858-5.858 5.857-15.355 0-21.213z"/></g></svg>