<svg height="511pt" viewBox="-65 1 511 511.99999" width="511pt" xmlns="http://www.w3.org/2000/svg"><path d="m191.21875 0c-105.164062 0-190.71875 85.554688-190.71875 190.71875 0 49.929688 30.515625 117.460938 90.695312 200.714844 43.988282 60.847656 87.265626 107.007812 89.085938 108.941406l10.9375 11.625 10.9375-11.625c1.820312-1.933594 45.097656-48.09375 89.085938-108.941406 60.179687-83.253906 90.695312-150.785156 90.695312-200.714844 0-105.164062-85.558594-190.71875-190.71875-190.71875zm0 306.363281c-65.417969 0-118.640625-53.21875-118.640625-118.640625 0-65.417968 53.222656-118.640625 118.640625-118.640625s118.640625 53.222657 118.640625 118.640625c0 65.421875-53.222656 118.640625-118.640625 118.640625zm0 0"/><path d="m191.21875 99.117188c-48.859375 0-88.605469 39.75-88.605469 88.605468 0 48.859375 39.746094 88.605469 88.605469 88.605469 48.855469 0 88.605469-39.746094 88.605469-88.605469 0-48.855468-39.75-88.605468-88.605469-88.605468zm56.011719 103.625h-40.996094v40.992187h-30.035156v-40.992187h-40.992188v-30.035157h40.992188v-40.992187h30.035156v40.992187h40.996094zm0 0"/></svg>