<svg height="426pt" viewBox="-33 0 426 426.66667" width="426pt" xmlns="http://www.w3.org/2000/svg"><path d="m296.441406 0c-31.21875.0390625-57.871094 22.558594-63.117187 53.332031h63.117187c4.207032.003907 8.023438 2.476563 9.738282 6.324219 1.714843 3.84375 1.007812 8.335938-1.804688 11.46875l-42.066406 46.953125c10.195312 6.496094 22.039062 9.941406 34.132812 9.921875 35.34375 0 64-28.652344 64-64s-28.65625-64-64-64zm0 0"/><path d="m225.164062 127.5h-177.472656l78.082032 87.09375v190.738281h-64v21.335938h149.332031v-21.335938h-64v-190.761719zm0 0"/><path d="m272.523438 74.667969h-272.191407l28.234375 31.496093h214.539063v1.261719zm0 0"/></svg>