<svg height="512pt" viewBox="0 0 512 512" width="512pt" xmlns="http://www.w3.org/2000/svg"><path d="m0 212h512v30h-512zm0 0"/><path d="m45.199219 512h421.601562l20-240h-461.601562zm330.800781-210h40v30h-40zm0 60h40v30h-40zm0 60h40v30h-40zm-70-120h40v30h-40zm0 60h40v30h-40zm0 60h40v30h-40zm-70-120h40v30h-40zm0 60h40v30h-40zm0 60h40v30h-40zm-70-120h40v30h-40zm0 60h40v30h-40zm0 60h40v30h-40zm-70-120h40v30h-40zm0 60h40v30h-40zm0 60h40v30h-40zm0 0"/><path d="m51.484375 137c-7.136719 7.96875-11.484375 18.484375-11.484375 30 0 5.257812.914062 10.304688 2.578125 15h414.382813c9.4375-12.542969 15.039062-28.128906 15.039062-45 0-41.355469-33.644531-75-75-75h-312c-24.8125 0-45 20.1875-45 45h355v30zm0 0"/><path d="m397 32c15.210938 0 29.675781 3.253906 42.734375 9.097656-2.453125-23.066406-22.027344-41.097656-45.734375-41.097656h-276c-20.785156 0-38.386719 13.859375-44.066406 32.824219 3.613281-.539063 7.304687-.824219 11.066406-.824219zm0 0"/></svg>